<svg preserveAspectRatio="none" width="100%" height="100%" overflow="visible" style="display: block;" viewBox="0 0 91.4667 87.4667" fill="none" xmlns="http://www.w3.org/2000/svg">
<g id="Vector" filter="url(#filter0_d_0_4)">
<path d="M29.5333 17.3333H61.9333C62.4107 17.3333 62.8686 17.5206 63.2061 17.854C63.5437 18.1874 63.7333 18.6396 63.7333 19.1111V47.5556C63.7333 48.0271 63.5437 48.4792 63.2061 48.8126C62.8686 49.146 62.4107 49.3333 61.9333 49.3333H29.5333C29.0559 49.3333 28.5981 49.146 28.2605 48.8126C27.923 48.4792 27.7333 48.0271 27.7333 47.5556V19.1111C27.7333 18.6396 27.923 18.1874 28.2605 17.854C28.5981 17.5206 29.0559 17.3333 29.5333 17.3333V17.3333ZM36.7333 35.1111V42.2222H40.3333V35.1111H36.7333ZM43.9333 24.4444V42.2222H47.5333V24.4444H43.9333ZM51.1333 29.7778V42.2222H54.7333V29.7778H51.1333Z" fill="url(#paint0_radial_0_4)"/>
</g>
<defs>
<filter id="filter0_d_0_4" x="0" y="9.53674e-07" width="91.4667" height="87.4667" filterUnits="userSpaceOnUse" color-interpolation-filters="sRGB">
<feFlood flood-opacity="0" result="BackgroundImageFix"/>
<feColorMatrix in="SourceAlpha" type="matrix" values="0 0 0 0 0 0 0 0 0 0 0 0 0 0 0 0 0 0 127 0" result="hardAlpha"/>
<feOffset dy="10.4"/>
<feGaussianBlur stdDeviation="13.8667"/>
<feComposite in2="hardAlpha" operator="out"/>
<feColorMatrix type="matrix" values="0 0 0 0 0.92549 0 0 0 0 0.603922 0 0 0 0 0.117647 0 0 0 0.5 0"/>
<feBlend mode="normal" in2="BackgroundImageFix" result="effect1_dropShadow_0_4"/>
<feBlend mode="normal" in="SourceGraphic" in2="effect1_dropShadow_0_4" result="shape"/>
</filter>
<radialGradient id="paint0_radial_0_4" cx="0" cy="0" r="1" gradientUnits="userSpaceOnUse" gradientTransform="translate(45.7333 17.3333) rotate(90) scale(35.6056 40.0563)">
<stop stop-color="#FFD596"/>
<stop offset="1" stop-color="#EC9A1E"/>
</radialGradient>
</defs>
</svg>
